<svg width="20" height="20" viewBox="0 0 20 20" fill="none" xmlns="http://www.w3.org/2000/svg">
<path d="M18.7344 14.464L15.9168 7.885C14.9626 5.653 13.2072 5.563 12.0279 7.687L10.3265 10.756C9.46232 12.313 7.85096 12.448 6.7347 11.053L6.53665 10.801C5.37539 9.343 3.73702 9.523 2.89982 11.188L1.35147 14.293C0.262222 16.453 1.83758 19 4.25013 19H15.7368C18.0773 19 19.6526 16.615 18.7344 14.464ZM5.49242 6.4C6.20866 6.4 6.89558 6.11554 7.40204 5.60919C7.9085 5.10284 8.19303 4.41608 8.19303 3.7C8.19303 2.98392 7.9085 2.29716 7.40204 1.79081C6.89558 1.28446 6.20866 1 5.49242 1C4.77617 1 4.08926 1.28446 3.58279 1.79081C3.07633 2.29716 2.7918 2.98392 2.7918 3.7C2.7918 4.41608 3.07633 5.10284 3.58279 5.60919C4.08926 6.11554 4.77617 6.4 5.49242 6.4Z" stroke="white" stroke-width="1.5" stroke-linecap="round" stroke-linejoin="round"/>
</svg>
