<svg width="14" height="13" viewBox="0 0 14 13" fill="none" xmlns="http://www.w3.org/2000/svg">
<path d="M3.99974 10.2355L5.82307 11.6471C6.05834 11.8824 6.5877 12 6.9406 12H9.17565C9.88146 12 10.6461 11.4706 10.8225 10.7648L12.2341 6.47119C12.5282 5.64774 11.9989 4.94194 11.1166 4.94194H8.76393C8.41103 4.94194 8.11694 4.64785 8.17576 4.23613L8.46985 2.35398C8.58748 1.82463 8.23458 1.23646 7.70522 1.06C7.23469 0.883553 6.64651 1.11882 6.41124 1.47172L3.99974 5.05957" stroke="white" stroke-width="1.5" stroke-miterlimit="10"/>
<path d="M1.00006 10.2355V4.47141C1.00006 3.64797 1.35296 3.35388 2.1764 3.35388H2.76458C3.58802 3.35388 3.94092 3.64797 3.94092 4.47141V10.2355C3.94092 11.0589 3.58802 11.353 2.76458 11.353H2.1764C1.35296 11.353 1.00006 11.0589 1.00006 10.2355Z" stroke="white" stroke-width="1.5" stroke-linecap="round" stroke-linejoin="round"/>
</svg>
