<svg width="20" height="20" viewBox="0 0 20 20" fill="none" xmlns="http://www.w3.org/2000/svg">
<path d="M15.8231 14.3471L16.1741 17.1911C16.2641 17.9381 15.4631 18.4601 14.8241 18.0731L11.0531 15.8321C10.6391 15.8321 10.2341 15.8051 9.83811 15.7511C10.5203 14.9603 10.897 13.9514 10.9001 12.9071C10.9001 10.351 8.6861 8.28103 5.95009 8.28103C4.90609 8.28103 3.94308 8.57803 3.14208 9.10004C3.11508 8.87504 3.10608 8.65003 3.10608 8.41603C3.10608 4.32101 6.6611 1 11.0531 1C15.4451 1 19.0002 4.32101 19.0002 8.41603C19.0002 10.846 17.7491 12.9971 15.8231 14.3471Z" stroke="white" stroke-width="1.5" stroke-linecap="round" stroke-linejoin="round"/>
<path d="M10.9 12.9071C10.9 13.9781 10.504 14.9681 9.83804 15.7511C8.94704 16.8311 7.53403 17.5241 5.95002 17.5241L3.60101 18.9191C3.20501 19.1621 2.70101 18.8291 2.75501 18.3701L2.98001 16.5971C1.774 15.7601 1 14.4191 1 12.9071C1 11.323 1.846 9.92804 3.14201 9.10004C3.94301 8.57804 4.90602 8.28104 5.95002 8.28104C8.68604 8.28104 10.9 10.351 10.9 12.9071Z" stroke="white" stroke-width="1.5" stroke-linecap="round" stroke-linejoin="round"/>
</svg>
