<svg width="22" height="22" viewBox="0 0 22 22" fill="none" xmlns="http://www.w3.org/2000/svg">
<path d="M17.47 15.83L17.86 18.99C17.96 19.82 17.07 20.4 16.36 19.97L12.17 17.48C11.71 17.48 11.26 17.45 10.82 17.39C11.578 16.5113 11.9965 15.3904 12 14.23C12 11.39 9.54 9.09 6.5 9.09C5.34 9.09 4.27 9.42 3.38 10C3.35 9.75 3.34 9.5 3.34 9.24C3.34 4.69 7.29 1 12.17 1C17.05 1 21 4.69 21 9.24C21 11.94 19.61 14.33 17.47 15.83Z" stroke="white" stroke-width="1.5" stroke-linecap="round" stroke-linejoin="round"/>
<path d="M12 14.23C12 15.42 11.56 16.52 10.82 17.39C9.83 18.59 8.26 19.36 6.5 19.36L3.89 20.91C3.45 21.18 2.89 20.81 2.95 20.3L3.2 18.33C1.86 17.4 1 15.91 1 14.23C1 12.47 1.94 10.92 3.38 10C4.27 9.42 5.34 9.09 6.5 9.09C9.54 9.09 12 11.39 12 14.23Z" stroke="white" stroke-width="1.5" stroke-linecap="round" stroke-linejoin="round"/>
</svg>
