<svg width="18" height="20" viewBox="0 0 18 20" fill="none" xmlns="http://www.w3.org/2000/svg">
<path d="M17 4.53778C14.04 4.24444 11.0622 4.09333 8.09333 4.09333C6.33333 4.09333 4.57333 4.18222 2.81333 4.36L1 4.53778M5.88889 3.64L6.08444 2.47556C6.22667 1.63111 6.33333 1 7.83556 1H10.1644C11.6667 1 11.7822 1.66667 11.9156 2.48444L12.1111 3.64M15.0889 7.34667L14.5111 16.2978C14.4133 17.6933 14.3333 18.7778 11.8533 18.7778H6.14667C3.66667 18.7778 3.58667 17.6933 3.48889 16.2978L2.91111 7.34667M7.51556 13.8889H10.4756M6.77778 10.3333H11.2222" stroke="white" stroke-width="1.5" stroke-linecap="round" stroke-linejoin="round"/>
</svg>
