<svg width="21" height="23" viewBox="0 0 21 23" fill="none" xmlns="http://www.w3.org/2000/svg">
<path d="M20 5.09C16.485 4.74166 12.9489 4.56222 9.42333 4.56222C7.33333 4.56222 5.24333 4.66777 3.15333 4.87889L1 5.09M6.80556 4.02389L7.03778 2.64111C7.20667 1.63833 7.33333 0.888885 9.11722 0.888885H11.8828C13.6667 0.888885 13.8039 1.68055 13.9622 2.65166L14.1944 4.02389M17.7306 8.42555L17.0444 19.055C16.9283 20.7122 16.8333 22 13.8883 22H7.11167C4.16667 22 4.07167 20.7122 3.95556 19.055L3.26944 8.42555M8.73722 16.1944H12.2522M7.86111 11.9722H13.1389" stroke="white" stroke-width="1.5" stroke-linecap="round" stroke-linejoin="round"/>
</svg>
