<svg width="16" height="16" viewBox="0 0 16 16" fill="none" xmlns="http://www.w3.org/2000/svg">
<path opacity="0.4" d="M0.275613 9.28029C0.585304 9.72523 1.13322 9.97949 1.76054 9.97949H5.01626C5.23066 9.97949 5.42918 10.0669 5.56418 10.2258C5.70711 10.3847 5.7627 10.6072 5.73093 10.8376L5.32595 13.4437C5.15125 14.2224 5.66741 15.0964 6.4456 15.3586C7.16821 15.6287 8.01788 15.2632 8.35933 14.7468L11.7024 9.76496L11.7977 9.60605V2.58227L11.6786 2.46309L9.16135 0.516455C8.82784 0.182746 8.07346 0 7.54143 0H4.44453C3.38046 0 2.30845 0.802491 2.07023 1.77978L0.116798 7.73093C-0.0817218 8.29505 -0.0261363 8.85123 0.275613 9.28029Z" fill="white"/>
<path d="M13.3309 12.178H14.1488C15.3797 12.178 15.8799 11.7013 15.8799 10.5253V2.54016C15.8799 1.36423 15.3797 0.887505 14.1488 0.887505H13.3309C12.1001 0.887505 11.5999 1.36423 11.5999 2.54016V10.5333C11.5999 11.7013 12.1001 12.178 13.3309 12.178Z" fill="white"/>
</svg>
