<svg width="20" height="20" viewBox="0 0 20 20" fill="none" xmlns="http://www.w3.org/2000/svg">
<path d="M14.2284 3.80681L11.328 1.56136C10.9538 1.18712 10.1117 1 9.55037 1H5.99508C4.87235 1 3.65606 1.84204 3.37538 2.96477L1.12993 9.79469C0.662128 11.1045 1.50417 12.2273 2.90758 12.2273H6.65C7.21136 12.2273 7.67916 12.6951 7.5856 13.35L7.1178 16.3439C6.93068 17.186 7.49204 18.1216 8.33409 18.4023C9.08257 18.6829 10.0182 18.3087 10.3924 17.7473L14.2284 12.0401" stroke="white" stroke-width="1.5" stroke-miterlimit="10"/>
<path d="M19 3.80682V12.9758C19 14.2856 18.4387 14.7534 17.1288 14.7534H16.1932C14.8834 14.7534 14.322 14.2856 14.322 12.9758V3.80682C14.322 2.49698 14.8834 2.02917 16.1932 2.02917H17.1288C18.4387 2.02917 19 2.49698 19 3.80682Z" stroke="white" stroke-width="1.5" stroke-linecap="round" stroke-linejoin="round"/>
</svg>
