<svg width="21" height="22" viewBox="0 0 21 22" fill="none" xmlns="http://www.w3.org/2000/svg">
<path d="M9.44405 1.24814H7.56762C2.87655 1.24814 1.00012 3.22333 1.00012 8.1613V14.0869C1.00012 19.0248 2.87655 21 7.56762 21H13.1969C17.888 21 19.7644 19.0248 19.7644 14.0869V12.1117" stroke="white" stroke-width="1.5" stroke-linecap="round" stroke-linejoin="round"/>
<path d="M14.1726 2.25546L6.77949 10.0377C6.49803 10.334 6.21657 10.9167 6.16027 11.3413L5.75684 14.314C5.60673 15.3905 6.32915 16.141 7.35181 15.9929L10.1758 15.5682C10.5699 15.509 11.1234 15.2127 11.4143 14.9164L18.8074 7.13417C20.0834 5.79105 20.6838 4.23065 18.8074 2.25546C16.931 0.28027 15.4486 0.912331 14.1726 2.25546Z" stroke="white" stroke-width="1.5" stroke-miterlimit="10" stroke-linecap="round" stroke-linejoin="round"/>
<path d="M13.1125 3.37143C13.4236 4.53429 14.0132 5.59358 14.8247 6.44783C15.6363 7.30208 16.6426 7.92267 17.7473 8.25014" stroke="white" stroke-width="1.5" stroke-miterlimit="10" stroke-linecap="round" stroke-linejoin="round"/>
</svg>
