<svg width="20" height="20" viewBox="0 0 20 20" fill="none" xmlns="http://www.w3.org/2000/svg">
<path d="M8.99951 1.22327H7.22184C2.77767 1.22327 1 3.00094 1 7.44511V12.7781C1 17.2223 2.77767 19 7.22184 19H12.5549C16.999 19 18.7767 17.2223 18.7767 12.7781V11.0005" stroke="#696CFF" stroke-width="1.5" stroke-linecap="round" stroke-linejoin="round"/>
<path d="M13.4792 2.12991L6.47521 9.13393C6.20856 9.40058 5.94191 9.925 5.88858 10.3072L5.50638 12.9826C5.36417 13.9514 6.04857 14.6269 7.0174 14.4936L9.69279 14.1114C10.0661 14.0581 10.5905 13.7914 10.8661 13.5248L17.8701 6.52076C19.0789 5.31194 19.6477 3.90758 17.8701 2.12991C16.0924 0.352243 14.688 0.921097 13.4792 2.12991Z" stroke="#696CFF" stroke-width="1.5" stroke-miterlimit="10" stroke-linecap="round" stroke-linejoin="round"/>
<path d="M12.4749 3.13431C12.7696 4.18088 13.3281 5.13424 14.0969 5.90307C14.8658 6.67189 15.8191 7.23042 16.8657 7.52515" stroke="#696CFF" stroke-width="1.5" stroke-miterlimit="10" stroke-linecap="round" stroke-linejoin="round"/>
</svg>
