<svg width="18" height="18" viewBox="0 0 18 18" fill="none" xmlns="http://www.w3.org/2000/svg">
<path d="M8.11068 1.19849H6.53053C2.58015 1.19849 1 2.77864 1 6.72902V11.4695C1 15.4198 2.58015 17 6.53053 17H11.271C15.2214 17 16.8015 15.4198 16.8015 11.4695V9.88932" stroke="white" stroke-width="1.5" stroke-linecap="round" stroke-linejoin="round"/>
<path d="M12.0926 2.00437L5.86683 8.23016C5.6298 8.46718 5.39278 8.93333 5.34538 9.27306L5.00565 11.6512C4.87923 12.5124 5.48759 13.1128 6.34877 12.9943L8.7269 12.6546C9.05873 12.6072 9.52488 12.3702 9.7698 12.1331L15.9956 5.90734C17.0701 4.83284 17.5757 3.58452 15.9956 2.00437C14.4154 0.424216 13.1671 0.929864 12.0926 2.00437Z" stroke="white" stroke-width="1.5" stroke-miterlimit="10" stroke-linecap="round" stroke-linejoin="round"/>
<path d="M11.2 2.89716C11.4619 3.82744 11.9584 4.67488 12.6418 5.35828C13.3252 6.04168 14.1726 6.53815 15.1029 6.80013" stroke="white" stroke-width="1.5" stroke-miterlimit="10" stroke-linecap="round" stroke-linejoin="round"/>
</svg>
