<svg width="22" height="19" viewBox="0 0 22 19" fill="none" xmlns="http://www.w3.org/2000/svg">
<path d="M14.6587 9.37172C14.6587 11.3737 13.0235 12.9914 11 12.9914C8.97649 12.9914 7.34134 11.3737 7.34134 9.37172C7.34134 7.36978 8.97649 5.75206 11 5.75206C13.0235 5.75206 14.6587 7.36978 14.6587 9.37172Z" stroke="white" stroke-width="1.5" stroke-linecap="round" stroke-linejoin="round"/>
<path d="M11 17.7333C14.6076 17.7333 17.9699 15.6303 20.3102 11.9904C21.2299 10.5648 21.2299 8.16854 20.3102 6.74292C17.9699 3.10304 14.6076 1 11 1C7.39244 1 4.03015 3.10304 1.68983 6.74292C0.770056 8.16854 0.770056 10.5648 1.68983 11.9904C4.03015 15.6303 7.39244 17.7333 11 17.7333Z" stroke="white" stroke-width="1.5" stroke-linecap="round" stroke-linejoin="round"/>
</svg>
