<svg width="20" height="20" viewBox="0 0 20 20" fill="none" xmlns="http://www.w3.org/2000/svg">
<path d="M11.5549 2.28808L13.1387 5.45321C13.3547 5.89381 13.9306 6.31643 14.4166 6.39736L17.2872 6.87392C19.123 7.17965 19.555 8.51044 18.2321 9.82325L16.0004 12.0532C15.6224 12.4309 15.4154 13.1592 15.5324 13.6808L16.1714 16.4413C16.6753 18.6263 15.5144 19.4715 13.5796 18.3295L10.8889 16.738C10.403 16.4502 9.60209 16.4502 9.10714 16.738L6.41644 18.3295C4.49065 19.4715 3.32078 18.6173 3.82473 16.4413L4.46366 13.6808C4.58064 13.1592 4.37367 12.4309 3.99571 12.0532L1.76395 9.82325C0.4501 8.51044 0.873053 7.17965 2.70885 6.87392L5.57953 6.39736C6.05648 6.31643 6.63242 5.89381 6.84839 5.45321L8.43222 2.28808C9.29612 0.570639 10.7 0.570639 11.5549 2.28808Z" stroke="white" stroke-width="1.5" stroke-linecap="round" stroke-linejoin="round"/>
</svg>
