<svg width="18" height="18" viewBox="0 0 18 18" fill="none" xmlns="http://www.w3.org/2000/svg">
<path d="M12.7586 3.49495L10.1805 1.49899C9.84781 1.16633 9.09933 1 8.60034 1H5.44007C4.44209 1 3.36095 1.74848 3.11145 2.74646L1.11549 8.8175C0.699669 9.98181 1.44815 10.9798 2.69563 10.9798H6.02222C6.52121 10.9798 6.93704 11.3956 6.85387 11.9778L6.43805 14.639C6.27172 15.3875 6.77071 16.2192 7.51919 16.4687C8.18451 16.7182 9.01616 16.3855 9.34882 15.8865L12.7586 10.8135" stroke="white" stroke-width="1.5" stroke-miterlimit="10"/>
<path d="M17 3.49499V11.6452C17 12.8095 16.501 13.2253 15.3367 13.2253H14.505C13.3407 13.2253 12.8418 12.8095 12.8418 11.6452V3.49499C12.8418 2.33068 13.3407 1.91486 14.505 1.91486H15.3367C16.501 1.91486 17 2.33068 17 3.49499Z" stroke="white" stroke-width="1.5" stroke-linecap="round" stroke-linejoin="round"/>
</svg>
