<svg width="17" height="17" viewBox="0 0 17 17" fill="none" xmlns="http://www.w3.org/2000/svg">
<path d="M5.00919 13.3437L7.44616 15.2303C7.7606 15.5448 8.46811 15.702 8.93978 15.702H11.927C12.8704 15.702 13.8923 14.9945 14.1282 14.0512L16.0149 8.3125C16.4079 7.21193 15.7004 6.26859 14.5212 6.26859H11.3768C10.9051 6.26859 10.512 5.87553 10.5906 5.32524L10.9837 2.80966C11.1409 2.10215 10.6692 1.31603 9.96174 1.0802C9.33284 0.844363 8.54672 1.15881 8.23228 1.63048L5.00919 6.42581" stroke="white" stroke-width="1.5" stroke-miterlimit="10"/>
<path d="M1 13.3437V5.63968C1 4.53912 1.47167 4.14606 2.57224 4.14606H3.35836C4.45893 4.14606 4.9306 4.53912 4.9306 5.63968V13.3437C4.9306 14.4442 4.45893 14.8373 3.35836 14.8373H2.57224C1.47167 14.8373 1 14.4442 1 13.3437Z" stroke="white" stroke-width="1.5" stroke-linecap="round" stroke-linejoin="round"/>
</svg>
