<svg width="20" height="20" viewBox="0 0 20 20" fill="none" xmlns="http://www.w3.org/2000/svg">
<path d="M5.82727 15.8624L8.76151 18.1341C9.14012 18.5127 9.992 18.702 10.5599 18.702H14.1567C15.2926 18.702 16.5231 17.8501 16.807 16.7143L19.0787 9.80464C19.552 8.4795 18.7001 7.34366 17.2803 7.34366H13.4942C12.9262 7.34366 12.453 6.8704 12.5476 6.20782L13.0209 3.17893C13.2102 2.32705 12.6423 1.38052 11.7904 1.09656C11.0332 0.812605 10.0867 1.19122 9.70804 1.75913L5.82727 7.53297" stroke="white" stroke-width="1.5" stroke-miterlimit="10"/>
<path d="M1 15.8624V6.58643C1 5.26129 1.56792 4.78802 2.89306 4.78802H3.83959C5.16473 4.78802 5.73265 5.26129 5.73265 6.58643V15.8624C5.73265 17.1876 5.16473 17.6608 3.83959 17.6608H2.89306C1.56792 17.6608 1 17.1876 1 15.8624Z" stroke="white" stroke-width="1.5" stroke-linecap="round" stroke-linejoin="round"/>
</svg>
