<svg width="16" height="16" viewBox="0 0 16 16" fill="none" xmlns="http://www.w3.org/2000/svg">
<path opacity="0.4" d="M15.6078 6.16775C15.2981 5.72294 14.75 5.46877 14.1225 5.46877H10.8659C10.6514 5.46877 10.4529 5.3814 10.3178 5.22254C10.1749 5.06368 10.1193 4.84128 10.151 4.61093L10.5561 2.00565C10.7309 1.22725 10.2146 0.353526 9.43618 0.0914093C8.71337 -0.17865 7.86348 0.186724 7.52194 0.703014L4.17002 5.68323L4.07471 5.84209V12.8636L4.19385 12.9828L6.71176 14.9288C7.04536 15.2624 7.79994 15.4451 8.33211 15.4451H11.4299C12.4942 15.4451 13.5665 14.6428 13.8048 13.6659L15.7587 7.71662C15.9653 7.15267 15.9097 6.60461 15.6078 6.16775Z" fill="white"/>
<path d="M2.54968 3.26778H1.73156C0.500404 3.26778 0 3.74436 0 4.91991V12.9105C0 14.086 0.500404 14.5626 1.73156 14.5626H2.54968C3.78083 14.5626 4.28124 14.086 4.28124 12.9105V4.91991C4.28124 3.74436 3.78083 3.26778 2.54968 3.26778Z" fill="white"/>
</svg>
