<svg width="20" height="19" viewBox="0 0 20 19" fill="none" xmlns="http://www.w3.org/2000/svg">
<path d="M19 13.68C19 14.49 18.775 15.255 18.37 15.903C17.9895 16.5425 17.4493 17.072 16.8024 17.4396C16.1555 17.8073 15.4241 18.0004 14.68 18C13.105 18 11.728 17.154 10.99 15.903C10.594 15.255 10.36 14.49 10.36 13.68C10.3831 12.5495 10.8484 11.4732 11.656 10.6818C12.4637 9.89051 13.5493 9.4473 14.68 9.4473C15.8107 9.4473 16.8964 9.89051 17.704 10.6818C18.5116 11.4732 18.9769 12.5495 19 13.68Z" stroke="white" stroke-width="1.5" stroke-miterlimit="10" stroke-linecap="round" stroke-linejoin="round"/>
<path d="M12.997 13.68L14.059 14.742L16.363 12.618" stroke="white" stroke-width="1.5" stroke-linecap="round" stroke-linejoin="round"/>
<path d="M19 6.02101C19 7.79401 18.541 9.36001 17.821 10.719C17.4178 10.2902 16.9312 9.94847 16.391 9.71476C15.8508 9.48105 15.2685 9.36032 14.68 9.36001C12.295 9.36001 10.36 11.295 10.36 13.68C10.36 14.787 10.783 15.795 11.467 16.56C11.134 16.713 10.828 16.839 10.558 16.929C10.252 17.037 9.74799 17.037 9.44199 16.929C6.83199 16.038 1 12.321 1 6.02101C1 3.24002 3.241 0.990021 6.00399 0.990021C7.63299 0.990021 9.09099 1.78202 9.99999 2.99702C10.4643 2.37495 11.0672 1.86967 11.7608 1.52129C12.4545 1.1729 13.2198 0.990998 13.996 0.990021C16.759 0.990021 19 3.24002 19 6.02101Z" stroke="white" stroke-width="1.5" stroke-linecap="round" stroke-linejoin="round"/>
</svg>
