<svg width="15" height="18" viewBox="0 0 15 18" fill="none" xmlns="http://www.w3.org/2000/svg">
<path d="M8.82995 3.73648H5.69797M13.5279 4.90925V12.7278C13.5279 15.8552 12.7449 16.637 9.61294 16.637H4.91497C1.78299 16.637 1 15.8552 1 12.7278V4.90925C1 1.78185 1.78299 1 4.91497 1H9.61294C12.7449 1 13.5279 1.78185 13.5279 4.90925Z" stroke="black" stroke-linecap="round" stroke-linejoin="round"/>
<path d="M7.26394 14.3696C7.58581 14.3696 7.89451 14.2419 8.12211 14.0146C8.34971 13.7874 8.47758 13.4791 8.47758 13.1577C8.47758 12.8363 8.34971 12.5281 8.12211 12.3008C7.89451 12.0735 7.58581 11.9459 7.26394 11.9459C6.94206 11.9459 6.63336 12.0735 6.40576 12.3008C6.17816 12.5281 6.05029 12.8363 6.05029 13.1577C6.05029 13.4791 6.17816 13.7874 6.40576 14.0146C6.63336 14.2419 6.94206 14.3696 7.26394 14.3696Z" stroke="black" stroke-linecap="round" stroke-linejoin="round"/>
</svg>
