<svg width="15" height="11" viewBox="0 0 15 11" fill="none" xmlns="http://www.w3.org/2000/svg">
<path d="M8.19998 1.92503C7.77753 1.92503 7.36456 2.05033 7.01333 2.28508C6.6621 2.51983 6.38839 2.85348 6.22682 3.24382C6.06525 3.63417 6.02309 4.06366 6.10567 4.47796C6.18825 4.89227 6.39185 5.27278 6.69073 5.57135C6.9896 5.86992 7.37032 6.07313 7.78471 6.15528C8.1991 6.23743 8.62855 6.19483 9.01873 6.03286C9.4089 5.87089 9.74227 5.59684 9.97666 5.24537C10.211 4.8939 10.3359 4.4808 10.3355 4.05835C10.3343 3.49253 10.1089 2.95026 9.7086 2.55037C9.3083 2.15049 8.7658 1.92561 8.19998 1.92503ZM8.19998 3.8391C8.34908 3.83939 8.49333 3.89208 8.60752 3.98794C8.72172 4.0838 8.79859 4.21675 8.82471 4.36354C8.85083 4.51033 8.82454 4.66163 8.75042 4.791C8.6763 4.92037 8.55908 5.01958 8.41923 5.07129V5.21819C8.41923 5.27634 8.39613 5.3321 8.35502 5.37322C8.3139 5.41434 8.25813 5.43744 8.19998 5.43744C8.14183 5.43744 8.08607 5.41434 8.04495 5.37322C8.00383 5.3321 7.98073 5.27634 7.98073 5.21819V5.07129C7.85839 5.02652 7.75269 4.94538 7.67783 4.83877C7.60297 4.73216 7.56253 4.60519 7.56196 4.47493C7.56196 4.41678 7.58506 4.36101 7.62618 4.31989C7.6673 4.27877 7.72306 4.25567 7.78121 4.25567C7.83936 4.25567 7.89513 4.27877 7.93625 4.31989C7.97736 4.36101 8.00046 4.41678 8.00046 4.47493C7.99754 4.50273 8.00049 4.53085 8.00912 4.55744C8.01776 4.58404 8.03189 4.60852 8.0506 4.6293C8.06931 4.65009 8.09218 4.6667 8.11773 4.67808C8.14327 4.68945 8.17092 4.69533 8.19889 4.69533C8.22685 4.69533 8.2545 4.68945 8.28004 4.67808C8.30559 4.6667 8.32846 4.65009 8.34717 4.6293C8.36588 4.60852 8.38001 4.58404 8.38865 4.55744C8.39728 4.53085 8.40023 4.50273 8.39731 4.47493C8.39731 4.42259 8.37652 4.3724 8.33951 4.33539C8.30251 4.29839 8.25232 4.2776 8.19998 4.2776C8.05033 4.27883 7.90507 4.22704 7.78994 4.13142C7.67481 4.0358 7.59725 3.90252 7.57098 3.75518C7.54472 3.60784 7.57146 3.45597 7.64645 3.32645C7.72145 3.19694 7.83987 3.09816 7.98073 3.0476V2.9007C7.98073 2.84255 8.00383 2.78679 8.04495 2.74567C8.08607 2.70455 8.14183 2.68145 8.19998 2.68145C8.25813 2.68145 8.3139 2.70455 8.35502 2.74567C8.39613 2.78679 8.41923 2.84255 8.41923 2.9007V3.05198C8.54099 3.09671 8.64615 3.1776 8.72061 3.28381C8.79507 3.39001 8.83527 3.51645 8.83581 3.64616C8.83581 3.7043 8.81271 3.76007 8.77159 3.80119C8.73048 3.84231 8.67471 3.86541 8.61656 3.86541C8.55841 3.86541 8.50264 3.84231 8.46152 3.80119C8.42041 3.76007 8.39731 3.7043 8.39731 3.64616C8.3976 3.62016 8.3927 3.59437 8.38289 3.5703C8.37307 3.54622 8.35855 3.52435 8.34017 3.50597C8.32178 3.48759 8.29991 3.47306 8.27584 3.46325C8.25177 3.45344 8.22598 3.44854 8.19998 3.44883C8.14765 3.44883 8.09746 3.46962 8.06045 3.50663C8.02345 3.54363 8.00266 3.59382 8.00266 3.64616C8.00266 3.69849 8.02345 3.74868 8.06045 3.78569C8.09746 3.82269 8.14765 3.84348 8.19998 3.84348V3.8391ZM5.26201 3.8391H4.60426C4.54611 3.8391 4.49034 3.8622 4.44923 3.90331C4.40811 3.94443 4.38501 4.0002 4.38501 4.05835C4.38501 4.1165 4.40811 4.17226 4.44923 4.21338C4.49034 4.2545 4.54611 4.2776 4.60426 4.2776H5.26201C5.32016 4.2776 5.37593 4.2545 5.41705 4.21338C5.45817 4.17226 5.48127 4.1165 5.48127 4.05835C5.48127 4.0002 5.45817 3.94443 5.41705 3.90331C5.37593 3.8622 5.32016 3.8391 5.26201 3.8391ZM11.7913 3.8391H11.1336C11.0754 3.8391 11.0196 3.8622 10.9785 3.90331C10.9374 3.94443 10.9143 4.0002 10.9143 4.05835C10.9143 4.1165 10.9374 4.17226 10.9785 4.21338C11.0196 4.2545 11.0754 4.2776 11.1336 4.2776H11.7913C11.8495 4.2776 11.9052 4.2545 11.9464 4.21338C11.9875 4.17226 12.0106 4.1165 12.0106 4.05835C12.0106 4.0002 11.9875 3.94443 11.9464 3.90331C11.9052 3.8622 11.8495 3.8391 11.7913 3.8391Z" fill="white"/>
<path d="M13.4949 0H2.90727C2.65019 0.000560258 2.40368 0.102333 2.22108 0.283292C2.03848 0.46425 1.93448 0.709837 1.9316 0.966898C1.67663 0.969747 1.43291 1.0723 1.2526 1.2526C1.0723 1.43291 0.969747 1.67663 0.966898 1.9316C0.709837 1.93448 0.46425 2.03848 0.283292 2.22108C0.102333 2.40368 0.000560258 2.65019 0 2.90727V9.07261C-6.50939e-07 9.33158 0.102723 9.57997 0.285633 9.76329C0.468544 9.94661 0.716703 10.0499 0.975668 10.0505H11.5655C11.8222 10.0493 12.0682 9.94731 12.2503 9.76642C12.4324 9.58552 12.5361 9.34026 12.539 9.08358C12.7943 9.08072 13.0384 8.97786 13.2187 8.79709C13.3991 8.61631 13.5014 8.37203 13.5037 8.11668C13.7609 8.11437 14.0068 8.01055 14.1879 7.82783C14.369 7.64511 14.4706 7.39826 14.4706 7.14101V0.975668C14.47 0.717083 14.367 0.469254 14.1842 0.286406C14.0013 0.103558 13.7535 0.00057914 13.4949 0ZM12.5302 8.64508H1.94037C1.79791 8.64508 1.66128 8.58848 1.56054 8.48774C1.4598 8.387 1.40321 8.25038 1.40321 8.10791V1.94257C1.40319 1.80161 1.45858 1.66629 1.55743 1.5658C1.65628 1.46531 1.79066 1.4077 1.9316 1.4054V7.14101C1.9316 7.39978 2.0344 7.64794 2.21737 7.83091C2.30797 7.92151 2.41553 7.99338 2.5339 8.04241C2.65227 8.09144 2.77914 8.11668 2.90727 8.11668H13.0652C13.0635 8.25742 13.0063 8.39181 12.9062 8.49072C12.806 8.58963 12.671 8.64509 12.5302 8.64508ZM13.5256 5.75315C13.5256 5.8113 13.5025 5.86707 13.4614 5.90819C13.4203 5.9493 13.3645 5.9724 13.3064 5.9724C13.0464 5.9724 12.7972 6.07566 12.6134 6.25945C12.4296 6.44325 12.3263 6.69253 12.3263 6.95246C12.3263 7.01061 12.3032 7.06637 12.2621 7.10749C12.221 7.14861 12.1652 7.17171 12.1071 7.17171H4.29513C4.23698 7.17171 4.18122 7.14861 4.1401 7.10749C4.09898 7.06637 4.07588 7.01061 4.07588 6.95246C4.07588 6.69253 3.97263 6.44325 3.78883 6.25945C3.60503 6.07566 3.35575 5.9724 3.09583 5.9724C3.03768 5.9724 2.98191 5.9493 2.94079 5.90819C2.89968 5.86707 2.87658 5.8113 2.87658 5.75315V2.36572C2.87658 2.30757 2.89968 2.2518 2.94079 2.21069C2.98191 2.16957 3.03768 2.14647 3.09583 2.14647C3.35575 2.14647 3.60503 2.04321 3.78883 1.85942C3.97263 1.67562 4.07588 1.42634 4.07588 1.16642C4.07588 1.10827 4.09898 1.0525 4.1401 1.01138C4.18122 0.970265 4.23698 0.947165 4.29513 0.947165H12.1071C12.1652 0.947165 12.221 0.970265 12.2621 1.01138C12.3032 1.0525 12.3263 1.10827 12.3263 1.16642C12.3263 1.42634 12.4296 1.67562 12.6134 1.85942C12.7972 2.04321 13.0464 2.14647 13.3064 2.14647C13.3645 2.14647 13.4203 2.16957 13.4614 2.21069C13.5025 2.2518 13.5256 2.30757 13.5256 2.36572V5.75315Z" fill="white"/>
</svg>
