<svg width="17" height="20" viewBox="0 0 17 20" fill="none" xmlns="http://www.w3.org/2000/svg">
<path d="M8.5 8.5C9.62717 8.5 10.7082 8.05223 11.5052 7.2552C12.3022 6.45817 12.75 5.37717 12.75 4.25C12.75 3.12283 12.3022 2.04183 11.5052 1.2448C10.7082 0.447766 9.62717 0 8.5 0C7.37283 0 6.29183 0.447766 5.4948 1.2448C4.69777 2.04183 4.25 3.12283 4.25 4.25C4.25 5.37717 4.69777 6.45817 5.4948 7.2552C6.29183 8.05223 7.37283 8.5 8.5 8.5ZM8.5 10.625C6.8503 10.6238 5.22305 11.0073 3.74751 11.745C2.27198 12.4828 0.988827 13.5545 0 14.875C0.988827 16.1955 2.27198 17.2672 3.74751 18.005C5.22305 18.7427 6.8503 19.1262 8.5 19.125C10.1497 19.1262 11.777 18.7427 13.2525 18.005C14.728 17.2672 16.0112 16.1955 17 14.875C16.0112 13.5545 14.728 12.4828 13.2525 11.745C11.777 11.0073 10.1497 10.6238 8.5 10.625Z" fill="white"/>
</svg>
