<svg width="20" height="20" viewBox="0 0 20 20" fill="none" xmlns="http://www.w3.org/2000/svg">
<path d="M7.3 8.20001C7.77739 8.20001 8.23523 8.01036 8.57279 7.6728C8.91036 7.33523 9.1 6.8774 9.1 6.40001C9.1 5.92262 8.91036 5.46478 8.57279 5.12721C8.23523 4.78965 7.77739 4.60001 7.3 4.60001C6.82261 4.60001 6.36477 4.78965 6.02721 5.12721C5.68964 5.46478 5.5 5.92262 5.5 6.40001C5.5 6.8774 5.68964 7.33523 6.02721 7.6728C6.36477 8.01036 6.82261 8.20001 7.3 8.20001Z" stroke="#014F41" stroke-width="1.5" stroke-linecap="round" stroke-linejoin="round"/>
<path d="M10.9 1H7.3C2.8 1 1 2.8 1 7.3V12.7C1 17.2 2.8 19 7.3 19H12.7C17.2 19 19 17.2 19 12.7V8.2" stroke="#014F41" stroke-width="1.5" stroke-linecap="round" stroke-linejoin="round"/>
<path d="M13.6 3.69099L14.914 5.00499L18.424 1.495M1.60303 16.255L6.04003 13.276C6.75103 12.799 7.77703 12.853 8.41603 13.402L8.71303 13.663C9.41503 14.266 10.549 14.266 11.251 13.663L14.995 10.45C15.697 9.84699 16.831 9.84699 17.533 10.45L19 11.71" stroke="#014F41" stroke-width="1.5" stroke-linecap="round" stroke-linejoin="round"/>
</svg>
