<svg width="17" height="15" viewBox="0 0 17 15" fill="none" xmlns="http://www.w3.org/2000/svg">
<path d="M16.813 2.93333C16.5442 2.08301 16.0047 1.33943 15.2736 0.811562C14.5424 0.283691 13.658 -0.000721444 12.75 1.37435e-06H4.25C3.34198 -0.000721444 2.45759 0.283691 1.72643 0.811562C0.995269 1.33943 0.455774 2.08301 0.187 2.93333C0.0643121 3.33345 0.00132612 3.74887 0 4.16667V10.8333C0.000450542 11.9383 0.448362 12.9978 1.24529 13.7791C2.04223 14.5604 3.12297 14.9996 4.25 15H12.75C13.877 14.9996 14.9578 14.5604 15.7547 13.7791C16.5516 12.9978 16.9995 11.9383 17 10.8333V4.16667C16.9987 3.74887 16.9357 3.33345 16.813 2.93333ZM4.25 1.66667H12.75C13.355 1.66844 13.9397 1.88039 14.4003 2.26487C14.861 2.64934 15.1677 3.18145 15.266 3.76667L8.5 7.38333L1.734 3.76667C1.83231 3.18145 2.13903 2.64934 2.59967 2.26487C3.0603 1.88039 3.64504 1.66844 4.25 1.66667ZM15.3 10.8333C15.298 11.4958 15.0287 12.1305 14.5509 12.5989C14.0731 13.0673 13.4257 13.3314 12.75 13.3333H4.25C3.57432 13.3314 2.92689 13.0673 2.44911 12.5989C1.97133 12.1305 1.70202 11.4958 1.7 10.8333V5.65L8.092 9.06667C8.21752 9.13247 8.35766 9.16689 8.5 9.16689C8.64234 9.16689 8.78248 9.13247 8.908 9.06667L15.3 5.65V10.8333Z" fill="white"/>
</svg>
