<svg width="13" height="13" viewBox="0 0 13 13" fill="none" xmlns="http://www.w3.org/2000/svg">
<path d="M11.1042 6.49578C11.1042 5.59031 10.8587 4.76076 10.3678 4.00714L3.98633 10.3595C4.75933 10.86 5.59722 11.1103 6.5 11.1103C7.1263 11.1103 7.72298 10.988 8.29004 10.7433C8.8571 10.4987 9.34657 10.1711 9.75846 9.76054C10.1704 9.34999 10.4976 8.85929 10.7402 8.28845C10.9829 7.71761 11.1042 7.12005 11.1042 6.49578ZM2.64909 9.01817L9.03906 2.65737C8.27734 2.14558 7.43099 1.88968 6.5 1.88968C5.66493 1.88968 4.89475 2.09496 4.18945 2.50552C3.48416 2.91607 2.92556 3.47566 2.51367 4.1843C2.10178 4.89293 1.89583 5.66342 1.89583 6.49578C1.89583 7.40688 2.14692 8.24767 2.64909 9.01817ZM13 6.49578C13 7.37876 12.8279 8.22237 12.4837 9.02661C12.1395 9.83085 11.6783 10.5226 11.0999 11.1019C10.5216 11.6812 9.8304 12.1423 9.02637 12.4854C8.22233 12.8285 7.38021 13 6.5 13C5.61979 13 4.77767 12.8285 3.97363 12.4854C3.1696 12.1423 2.47841 11.6812 1.90007 11.1019C1.32172 10.5226 0.86046 9.83085 0.516276 9.02661C0.172092 8.22237 0 7.37876 0 6.49578C0 5.61281 0.172092 4.7706 0.516276 3.96918C0.86046 3.16775 1.32172 2.4774 1.90007 1.89812C2.47841 1.31884 3.1696 0.857668 3.97363 0.514601C4.77767 0.171534 5.61979 0 6.5 0C7.38021 0 8.22233 0.171534 9.02637 0.514601C9.8304 0.857668 10.5216 1.31884 11.0999 1.89812C11.6783 2.4774 12.1395 3.16775 12.4837 3.96918C12.8279 4.7706 13 5.61281 13 6.49578Z" fill="white"/>
</svg>
