<svg width="23" height="25" viewBox="0 0 23 25" fill="none" xmlns="http://www.w3.org/2000/svg">
<path d="M11.5 12.1951C13.1777 12.1951 14.7866 11.5527 15.9729 10.4092C17.1592 9.26567 17.8256 7.71473 17.8256 6.09756C17.8256 4.48039 17.1592 2.92945 15.9729 1.78593C14.7866 0.64242 13.1777 0 11.5 0C9.82234 0 8.21339 0.64242 7.0271 1.78593C5.84082 2.92945 5.17437 4.48039 5.17437 6.09756C5.17437 7.71473 5.84082 9.26567 7.0271 10.4092C8.21339 11.5527 9.82234 12.1951 11.5 12.1951ZM11.5 15.2439C5.16172 15.2439 0 19.3415 0 24.3902C0 24.7317 0.278328 25 0.632563 25H22.3674C22.7217 25 23 24.7317 23 24.3902C23 19.3415 17.8383 15.2439 11.5 15.2439Z" fill="white"/>
</svg>
