<svg width="20" height="23" viewBox="0 0 20 23" fill="none" xmlns="http://www.w3.org/2000/svg">
<path d="M19.7183 7.51707C18.5352 2.33366 13.9944 0 10.0056 0H9.99437C6.01689 0 1.46477 2.32244 0.281666 7.50585C-1.03665 13.2951 2.52393 18.198 5.74647 21.2834C6.88869 22.3843 8.41599 22.9998 10.0056 23C11.538 23 13.0704 22.4278 14.2535 21.2834C17.4761 18.198 21.0366 13.3063 19.7183 7.51707ZM10.0056 13.138C9.53953 13.138 9.078 13.0466 8.64737 12.869C8.21675 12.6914 7.82548 12.4311 7.4959 12.1029C7.16631 11.7747 6.90487 11.3851 6.7265 10.9564C6.54813 10.5276 6.45633 10.068 6.45633 9.6039C6.45633 9.13979 6.54813 8.68023 6.7265 8.25144C6.90487 7.82266 7.16631 7.43306 7.4959 7.10488C7.82548 6.77671 8.21675 6.51638 8.64737 6.33878C9.078 6.16117 9.53953 6.06976 10.0056 6.06976C10.947 6.06976 11.8497 6.4421 12.5154 7.10488C13.181 7.76766 13.5549 8.66659 13.5549 9.6039C13.5549 10.5412 13.181 11.4401 12.5154 12.1029C11.8497 12.7657 10.947 13.138 10.0056 13.138Z" fill="white"/>
</svg>
