<svg width="23" height="23" viewBox="0 0 23 23" fill="none" xmlns="http://www.w3.org/2000/svg">
<path d="M11.5 0C5.1635 0 0 5.1635 0 11.5C0 17.8365 5.1635 23 11.5 23C17.8365 23 23 17.8365 23 11.5C23 5.1635 17.8365 0 11.5 0ZM10.6375 6.9C10.6375 6.4285 11.0285 6.0375 11.5 6.0375C11.9715 6.0375 12.3625 6.4285 12.3625 6.9V12.65C12.3625 13.1215 11.9715 13.5125 11.5 13.5125C11.0285 13.5125 10.6375 13.1215 10.6375 12.65V6.9ZM12.558 16.537C12.5005 16.6865 12.42 16.8015 12.3165 16.9165C12.2015 17.02 12.075 17.1005 11.937 17.158C11.799 17.2155 11.6495 17.25 11.5 17.25C11.3505 17.25 11.201 17.2155 11.063 17.158C10.925 17.1005 10.7985 17.02 10.6835 16.9165C10.58 16.8015 10.4995 16.6865 10.442 16.537C10.3829 16.3988 10.3517 16.2503 10.35 16.1C10.35 15.9505 10.3845 15.801 10.442 15.663C10.4995 15.525 10.58 15.3985 10.6835 15.2835C10.7985 15.18 10.925 15.0995 11.063 15.042C11.343 14.927 11.657 14.927 11.937 15.042C12.075 15.0995 12.2015 15.18 12.3165 15.2835C12.42 15.3985 12.5005 15.525 12.558 15.663C12.6155 15.801 12.65 15.9505 12.65 16.1C12.65 16.2495 12.6155 16.399 12.558 16.537Z" fill="white"/>
</svg>
