<svg width="28" height="21" viewBox="0 0 28 21" fill="none" xmlns="http://www.w3.org/2000/svg">
<path d="M22.9826 9.65701L25.7388 8.27891C25.8448 8.22593 25.9391 8.15238 26.0164 8.06254C26.0936 7.9727 26.1521 7.86838 26.1886 7.75567C26.2251 7.64296 26.2387 7.52411 26.2288 7.40606C26.2188 7.28801 26.1855 7.17313 26.1306 7.06812L23.3883 1.81644C23.2801 1.60913 23.0947 1.45262 22.8722 1.38062C22.6497 1.30862 22.4078 1.32688 22.1986 1.43147L19.4144 2.8236L22.9826 9.65701ZM22.9826 9.65701L21.6445 11.7442L17.5414 15.8474C17.4324 15.9563 17.2972 16.0352 17.1487 16.0763C17.0002 16.1174 16.8437 16.1194 16.6942 16.082L10.2316 14.4664C10.1104 14.4361 9.99686 14.3806 9.89844 14.3037L4.24933 9.5375M4.24933 9.5375L1.49312 8.1594C1.38716 8.10642 1.29281 8.03287 1.21559 7.94303C1.13836 7.85319 1.0798 7.74887 1.04333 7.63616C1.00686 7.52345 0.9932 7.4046 1.00316 7.28655C1.01311 7.1685 1.04648 7.05362 1.10131 6.94861L3.84362 1.69693C3.95187 1.48962 4.1372 1.33311 4.35972 1.26111C4.58223 1.1891 4.82412 1.20736 5.0333 1.31195L7.81757 2.70408L4.24933 9.5375Z" stroke="white" stroke-width="2" stroke-linecap="round" stroke-linejoin="round"/>
<path d="M21.6446 11.744L16.7382 8.17573L15.3109 9.24621C14.6933 9.70944 13.942 9.95986 13.17 9.95986C12.3979 9.95986 11.6467 9.70944 11.029 9.24621L10.4246 8.79287C10.3223 8.71618 10.2378 8.61842 10.1766 8.50621C10.1154 8.39399 10.0791 8.26994 10.07 8.14245C10.0609 8.01497 10.0794 7.88702 10.1241 7.76728C10.1688 7.64755 10.2387 7.53881 10.329 7.44843L14.6928 3.08464C14.7757 3.00181 14.874 2.9361 14.9822 2.89127C15.0905 2.84644 15.2065 2.82336 15.3236 2.82336H19.4144" stroke="white" stroke-width="2" stroke-linecap="round" stroke-linejoin="round"/>
<path d="M7.88147 2.70398L13.158 1.03565C13.3624 0.976056 13.5814 0.991548 13.7754 1.07933L17.6301 2.82349M11.3857 19.3266L8.02489 18.4864C7.88851 18.4523 7.76212 18.3865 7.65602 18.2943L5.14124 16.1083" stroke="white" stroke-width="2" stroke-linecap="round" stroke-linejoin="round"/>
</svg>
