<svg width="23" height="23" viewBox="0 0 23 23" fill="none" xmlns="http://www.w3.org/2000/svg">
<path d="M20.9453 6.37817L13.869 0.819675C13.1935 0.288667 12.3592 0 11.5 0C10.6408 0 9.80649 0.288667 9.131 0.819675L2.05467 6.37817C1.4143 6.88044 0.896551 7.52177 0.540585 8.25365C0.18462 8.98552 -0.000237165 9.78878 2.28356e-07 10.6026V17.6332C2.28356e-07 19.0565 0.565415 20.4216 1.57186 21.4281C2.57831 22.4346 3.94334 23 5.36667 23H7.66667C7.87 23 8.065 22.9192 8.20878 22.7754C8.35256 22.6317 8.43333 22.4366 8.43333 22.2333V16.8665C8.43333 16.0531 8.75643 15.2731 9.33154 14.698C9.90665 14.1228 10.6867 13.7997 11.5 13.7997C12.3133 13.7997 13.0933 14.1228 13.6685 14.698C14.2436 15.2731 14.5667 16.0531 14.5667 16.8665V22.2333C14.5667 22.4366 14.6474 22.6317 14.7912 22.7754C14.935 22.9192 15.13 23 15.3333 23H17.6333C19.0567 23 20.4217 22.4346 21.4281 21.4281C22.4346 20.4216 23 19.0565 23 17.6332V10.6026C23.0002 9.78878 22.8154 8.98552 22.4594 8.25365C22.1034 7.52177 21.5857 6.88044 20.9453 6.37817Z" fill="white"/>
</svg>
