<svg width="30" height="17" viewBox="0 0 30 17" fill="none" xmlns="http://www.w3.org/2000/svg">
<path d="M7.19265 9.71415C9.599 9.71415 11.5497 7.76342 11.5497 5.35708C11.5497 2.95073 9.599 1 7.19265 1C4.7863 1 2.83557 2.95073 2.83557 5.35708C2.83557 7.76342 4.7863 9.71415 7.19265 9.71415Z" stroke="white" stroke-width="2" stroke-miterlimit="10"/>
<path d="M1.00107 16.5937C0.985272 15.7059 1.14453 14.8237 1.46975 13.9974C1.79498 13.1711 2.27979 12.417 2.8965 11.7782C3.51321 11.1393 4.24973 10.6282 5.06401 10.2741C5.87828 9.91991 6.75435 9.72963 7.64217 9.71411M13.843 16.5937C13.8588 15.7059 13.6995 14.8237 13.3743 13.9974C13.0491 13.1711 12.5643 12.417 11.9476 11.7782C11.3308 11.1393 10.5943 10.6282 9.78004 10.2741C8.96577 9.91991 8.0897 9.72963 7.20188 9.71411" stroke="white" stroke-width="2" stroke-miterlimit="10"/>
<path d="M16.5947 1H29.4366" stroke="white" stroke-width="2" stroke-miterlimit="10"/>
<path d="M16.5947 8.33826H29.4366" stroke="white" stroke-width="2" stroke-miterlimit="10"/>
<path d="M16.5947 15.6765H29.4366" stroke="white" stroke-width="2" stroke-miterlimit="10"/>
</svg>
