<svg width="14" height="14" viewBox="0 0 14 14" fill="none" xmlns="http://www.w3.org/2000/svg">
<path d="M9.58145 2.82082L7.69994 1.36416C7.45716 1.12139 6.91091 1 6.54675 1H4.24038C3.51205 1 2.72303 1.54625 2.54094 2.27457L1.08429 6.70524C0.780817 7.55496 1.32706 8.28328 2.23747 8.28328H4.66524C5.0294 8.28328 5.33287 8.58675 5.27218 9.01161L4.96871 10.9538C4.84732 11.5001 5.21148 12.107 5.75773 12.2891C6.24328 12.4712 6.85022 12.2284 7.093 11.8642L9.58145 8.1619" stroke="white" stroke-width="1.5" stroke-miterlimit="10"/>
<path d="M12.6768 2.82083V8.76884C12.6768 9.61856 12.3127 9.92203 11.463 9.92203H10.856C10.0063 9.92203 9.64214 9.61856 9.64214 8.76884V2.82083C9.64214 1.97111 10.0063 1.66764 10.856 1.66764H11.463C12.3127 1.66764 12.6768 1.97111 12.6768 2.82083Z" stroke="white" stroke-width="1.5" stroke-linecap="round" stroke-linejoin="round"/>
</svg>
