<svg width="18" height="20" viewBox="0 0 18 20" fill="none" xmlns="http://www.w3.org/2000/svg">
<path opacity="0.4" d="M7.08 0.2325L2.09 2.1025C0.94 2.5325 0 3.8925 0 5.1225V12.5525C0 13.7325 0.78 15.2825 1.73 15.9925L6.03 19.2025C7.44 20.2625 9.76 20.2625 11.17 19.2025L15.47 15.9925C16.42 15.2825 17.2 13.7325 17.2 12.5525V5.1225C17.2 3.8925 16.26 2.5325 15.11 2.1025L10.12 0.2325C9.27 -0.0775 7.91 -0.0775 7.08 0.2325Z" fill="black"/>
<path d="M8.49 9.30451H8.59C9.74 9.26451 10.64 8.33451 10.65 7.17451C10.65 5.99451 9.69 5.03452 8.51 5.03452C7.33 5.03452 6.37 5.99451 6.37 7.17451C6.39 8.32451 7.29 9.26451 8.49 9.30451ZM10.78 11.4155C9.57 10.6155 7.61 10.6155 6.39 11.4155C5.83 11.7955 5.5 12.3355 5.5 12.8955C5.5 13.4655 5.82 13.9855 6.39 14.3655C7 14.7655 7.79 14.9755 8.58 14.9755C9.37 14.9755 10.17 14.7755 10.77 14.3655C11.33 13.9855 11.66 13.4455 11.66 12.8855C11.67 12.3155 11.35 11.7955 10.78 11.4155Z" fill="black"/>
</svg>
