<svg width="18" height="21" viewBox="0 0 18 21" fill="none" xmlns="http://www.w3.org/2000/svg">
<path d="M8.98457 0.525669L8.52043 1.04638C6.55329 3.25524 3.82243 4.29795 0.564429 4.69524L0 4.76338V5.33295C0 8.6501 0.702 11.8682 2.15486 14.5065C3.60771 17.1448 5.83714 19.2032 8.81614 20.0917L9.00771 20.1495L9.198 20.084C14.9554 18.2235 18 12.1627 18 5.33295V4.82124L17.4999 4.70295C14.3306 3.97267 11.4081 3.08553 9.46671 1.03481L8.98457 0.524384V0.525669ZM9.01543 2.23567C11.097 4.17967 13.8304 5.11567 16.6616 5.79195C16.5266 11.939 13.8369 17.0664 8.99486 18.7545C6.47357 17.9381 4.56943 16.2217 3.28243 13.8855C2.02757 11.6098 1.40529 8.76581 1.33843 5.80867C4.31486 5.35738 6.97243 4.29153 9.01414 2.23567H9.01543ZM12.4329 7.73981L7.74386 11.8451L5.59671 9.70052L4.68771 10.6095L7.68343 13.6052L13.2814 8.70795L12.4329 7.73981Z" fill="white"/>
</svg>
